<svg width="88" height="140" viewBox="0 0 88 140" fill="none" xmlns="http://www.w3.org/2000/svg">
<path d="M83.6745 66.4486C81.1833 70.7875 77.3024 73.4743 72.8605 73.9993C71.1826 77.0258 68.8201 79.661 65.7267 81.9566C66.5039 82.3736 67.2554 82.8419 67.9502 83.3772C73.998 88.0096 77.3951 97.4081 78.4657 104.048C78.615 104.964 78.5686 105.896 78.337 106.776C78.8363 110.399 79.2995 115.778 78.337 119.484C77.8532 121.357 77.1686 123.03 76.2936 124.487C76.2833 124.734 76.2627 124.976 76.2267 125.223C75.9693 126.993 75.0377 128.558 73.6017 129.629L61.4032 138.729L61.0275 138.981C61.0275 138.981 60.9296 139.032 60.9193 139.038L60.7855 139.115C60.6363 139.192 60.487 139.269 60.3429 139.341C60.173 139.418 60.0083 139.49 59.8385 139.552C59.6069 139.64 59.3958 139.701 59.226 139.748C59.0819 139.789 58.9326 139.82 58.7782 139.851L58.6392 139.876C58.2583 139.943 57.8774 139.974 57.512 139.974C57.2958 139.974 57.0745 139.964 56.8583 139.943L13.9782 135.532C10.8797 135.218 8.4348 132.835 8.02818 129.742L4.02891 99.3537C3.76126 97.2949 4.44067 95.2721 5.89214 93.7949C7.14288 92.5236 8.88259 91.7927 10.6635 91.7927C10.9054 91.7927 11.1524 91.8081 11.3944 91.8338L12.4495 91.9471C13.2988 89.9809 14.6113 87.8191 16.6392 86.0537C17.7407 85.0963 18.8627 84.2728 19.9745 83.5625C16.7988 81.0405 14.9047 78.1324 13.7826 75.6875C12.9694 75.5177 12.1613 75.2706 11.3583 74.9463C7.35907 73.3302 4.0392 69.964 2.48479 65.9338C0.904645 61.8111 1.16715 56.6434 3.15392 52.7625C3.52451 52.0419 3.94142 51.378 4.4098 50.7706C3.40613 46.4677 2.40244 39.4471 3.66347 31.1963C5.10465 21.7721 11.3171 17.5 15.3833 15.6831C16.9223 11.5449 20.6385 5.01326 29.1671 2.30076C32.4304 1.26105 37.5672 0.0257568 43.4966 0.0257568C53.1525 0.0257568 61.7069 3.38164 68.2282 9.72282C69.4429 10.9221 70.148 12.4971 70.2407 14.139C73.2929 16.1515 76.4223 18.8434 78.5068 22.2765C79.6907 24.2169 79.8039 26.6103 78.8105 28.664C78.7333 28.8184 78.6561 28.9677 78.5686 29.1118C80.051 32.0662 81.3892 35.8596 81.5745 40.111C81.6929 42.8596 81.5745 45.1861 81.3686 47.0802C83.1495 48.6037 84.5032 50.6522 85.301 53.0765C86.6907 57.3588 86.1039 62.228 83.6797 66.4486H83.6745Z" fill="white"/>
<path d="M76.3516 49.9367C76.1302 49.844 75.9192 49.7617 75.7133 49.6896C76.1354 47.8985 76.6192 44.769 76.4288 40.3374C76.1817 34.7065 73.3766 29.9713 71.5854 27.5007C72.0332 27.4132 72.517 27.336 72.97 27.2793C73.4898 27.2176 73.9427 26.8933 74.1744 26.4198C74.4008 25.9514 74.3751 25.3955 74.1023 24.9477C71.5391 20.7271 66.6494 17.7727 63.5611 16.2338C63.7773 16.1257 63.9935 16.0227 64.2097 15.9198C64.6729 15.7088 64.9972 15.2815 65.0795 14.7823C65.167 14.2779 64.9972 13.7683 64.6369 13.4132C52.7523 1.85802 36.9611 5.22419 30.7229 7.20581C22.5442 9.80508 20.1766 16.8823 19.5538 19.6257C16.8464 20.3771 10.1038 23.1102 8.7501 31.9735C7.2729 41.6396 9.20304 49.3242 10.181 52.3764C9.18245 52.9889 8.34863 53.9051 7.73098 55.1095C6.41848 57.6727 6.23833 61.358 7.28319 64.0808C8.31775 66.7624 10.6185 69.0992 13.2847 70.1749C14.7104 70.7514 16.131 70.9367 17.4795 70.7257C18.2464 73.9786 20.9744 80.4639 30.62 83.2176C30.5633 83.6499 30.4964 84.1543 30.4192 84.6845C28.3655 85.1529 23.9648 86.4962 20.017 89.9345C17.1758 92.4102 16.3317 96.3014 16.131 97.5264L10.8295 96.9499C10.356 96.8985 9.88761 97.0683 9.55819 97.4029C9.22364 97.7426 9.06922 98.2161 9.13098 98.6845L13.1303 129.078C13.2229 129.788 13.7891 130.339 14.4994 130.411L57.3538 134.822C57.4052 134.827 57.4567 134.827 57.5082 134.827C57.5957 134.827 57.6883 134.817 57.781 134.801C57.8067 134.801 57.8324 134.791 57.8582 134.781C57.9251 134.765 57.9869 134.75 58.0486 134.724C58.0795 134.714 58.1053 134.704 58.1361 134.688C58.1928 134.662 58.2494 134.632 58.306 134.601C58.3317 134.585 58.3575 134.57 58.3832 134.549C58.3986 134.539 58.4141 134.534 58.4295 134.523L70.5251 125.501C71.2097 124.991 71.3486 124.023 70.8391 123.339C70.8288 123.323 70.8133 123.313 70.7979 123.298C71.9508 122.032 72.795 120.343 73.3508 118.192C74.2567 114.697 73.392 108.382 73.0266 106.101C73.3148 105.757 73.4538 105.314 73.3817 104.866C72.3883 98.7102 69.3516 90.9382 64.817 87.4639C61.3222 84.7874 55.5214 84.1646 52.917 84.0205C52.8758 83.8095 52.8398 83.5985 52.7986 83.3926C52.7677 83.2176 52.7369 83.0477 52.706 82.8779C54.6773 82.2139 56.628 81.3801 58.553 80.3713C64.3178 77.3448 67.8538 73.6338 69.5729 68.7852C72.3111 69.3154 76.4288 68.7235 79.2082 63.8852C80.9067 60.9257 81.3391 57.5698 80.3972 54.6771C79.6714 52.4588 78.2354 50.7808 76.3464 49.9367H76.3516ZM58.7795 130.411L58.3214 125.809C59.4229 126.026 60.8692 126.211 62.6038 126.211C63.1082 126.211 63.6435 126.196 64.1942 126.159C64.3074 126.154 64.4155 126.139 64.5236 126.129L58.7795 130.411ZM70.3656 117.415C69.3825 121.208 67.5347 122.845 63.9935 123.076C61.2141 123.257 59.1038 122.855 58.0023 122.567L57.2611 115.088C60.6736 112.875 63.7619 114.877 63.9163 114.98C64.6214 115.459 65.5788 115.279 66.0574 114.584C66.5413 113.879 66.3663 112.916 65.6663 112.432C65.2957 112.175 64.8119 111.912 64.2457 111.681C66.6494 110.662 68.7185 109.39 70.2369 108.33C70.6075 111.202 70.9317 115.243 70.3656 117.415ZM53.0766 87.1242C55.4905 87.2889 60.2567 87.8602 62.9435 89.919C66.5876 92.7036 69.1869 99.2507 70.1854 104.501C68.8111 105.607 65.3729 108.155 61.2604 109.509C61.0236 108.294 60.7405 106.554 60.6582 104.964C60.6119 104.109 59.8861 103.451 59.0369 103.497C58.1825 103.543 57.5288 104.269 57.5751 105.118C57.6986 107.517 58.2133 110.111 58.4553 111.233C57.956 111.357 57.4464 111.532 56.9317 111.763L56.0722 103.096C56.0001 102.37 55.4288 101.793 54.703 101.711L19.2089 97.861C19.4045 96.8161 20.0891 93.9698 22.0449 92.2661C24.8347 89.8367 27.9332 88.6065 29.9251 88.0146C29.9199 88.0301 29.92 88.0455 29.9148 88.061C29.7192 89.1624 30.167 90.4132 31.1758 91.5816C33.1369 93.8565 36.6523 95.1896 40.6567 95.1896C40.8266 95.1896 40.9964 95.1845 41.1663 95.1793C46.1486 95.0404 49.381 92.3227 50.8582 90.7168C51.7898 89.7132 52.7472 88.344 53.0766 87.1242ZM32.9567 88.6014C33.1472 87.5257 33.4405 85.436 33.6361 83.9536C36.2148 84.4837 38.7677 84.7565 41.2949 84.7565C44.1464 84.7565 46.9567 84.4117 49.731 83.7374C49.7413 83.8146 49.7567 83.8867 49.7722 83.9639C49.9214 84.7823 50.0707 85.5543 50.1119 86.2801C49.9008 87.4382 46.617 91.9367 41.0788 92.0911C36.7089 92.2198 34.5266 90.5727 33.7957 89.8573C33.1008 89.1882 32.9619 88.6735 32.9567 88.6014ZM76.5369 62.3463C73.7163 67.2514 69.6398 65.6507 69.192 65.4551C68.7802 65.2698 68.3016 65.2698 67.8898 65.4654C67.4781 65.661 67.1744 66.0264 67.0611 66.469C66.2119 69.6808 64.3126 73.8602 57.1222 77.6382C49.0104 81.8999 40.3839 82.7801 31.495 80.2529C20.8251 77.2212 20.2847 69.0271 20.2692 68.6874C20.2486 68.1727 19.9707 67.7043 19.528 67.4316C19.281 67.2823 19.003 67.2051 18.7251 67.2051C18.5038 67.2051 18.2825 67.2565 18.0766 67.3492C16.7126 67.9823 15.3435 67.6786 14.4427 67.3132C12.5692 66.5565 10.8913 64.8529 10.1655 62.969C9.43466 61.0698 9.56848 58.2955 10.4795 56.5198C10.9839 55.5315 11.6633 54.919 12.5023 54.6977C14.8236 54.0904 15.8788 56.7308 15.992 57.0242C16.2494 57.7499 17.0111 58.172 17.7626 58.0124C18.5192 57.8529 19.0391 57.158 18.9825 56.386L18.2207 46.0507C20.5008 44.872 25.9464 41.6396 27.0273 37.1823C27.7685 34.1198 28.0876 31.536 28.2266 29.9661C29.4361 30.1463 31.2119 30.6043 32.653 31.7676C35.2883 33.8933 43.3229 40.3683 51.8928 39.061C57.0964 38.2683 59.9942 37.2389 61.4405 36.5698C62.7067 37.9698 65.2597 41.3154 66.0369 46.2051C66.7986 50.9867 67.2619 55.1713 67.267 55.2124C67.3391 55.8558 67.8075 56.386 68.4354 56.5404C69.0633 56.6948 69.7221 56.4374 70.0824 55.9021L70.1442 55.8146C72.1155 52.8757 73.0575 51.8565 75.0957 52.7624C76.1766 53.2411 77.0155 54.2602 77.4633 55.6345C78.1376 57.6985 77.803 60.1433 76.5369 62.3463Z" fill="#141414"/>
<path d="M30.666 63.9058C32.8094 63.9058 34.5469 62.1683 34.5469 60.0249C34.5469 57.8816 32.8094 56.144 30.666 56.144C28.5227 56.144 26.7852 57.8816 26.7852 60.0249C26.7852 62.1683 28.5227 63.9058 30.666 63.9058Z" fill="#141414"/>
<path d="M54.1152 56.144C51.9689 56.144 50.2344 57.8837 50.2344 60.0249C50.2344 62.1661 51.9741 63.9058 54.1152 63.9058C56.2564 63.9058 57.9961 62.1661 57.9961 60.0249C57.9961 57.8837 56.2564 56.144 54.1152 56.144Z" fill="#141414"/>
<path d="M50.6727 69.794C49.9675 69.3205 49.0102 69.5058 48.5315 70.2058C48.4492 70.3293 46.4315 73.2168 42.7771 73.2168C39.1227 73.2168 36.6933 70.9521 36.5801 70.8388C35.9881 70.2263 35.0153 70.2109 34.4028 70.7977C33.7852 71.3896 33.7698 72.3675 34.3565 72.98C34.4852 73.1138 37.5992 76.2999 42.7771 76.2999C47.955 76.2999 50.9764 72.0999 51.0948 71.9197C51.5683 71.2146 51.3727 70.2624 50.6727 69.7888V69.794Z" fill="#141414"/>
</svg>
